<svg id="Capa_1" data-name="Capa 1" xmlns="http://www.w3.org/2000/svg" xmlns:xlink="http://www.w3.org/1999/xlink" viewBox="0 0 1080 1080"><defs><style>.cls-1{font-size:103.95px;fill:#09182d;font-family:Montserrat-Black, Montserrat;font-weight:800;letter-spacing:0.07em;}.cls-2{letter-spacing:0.07em;}.cls-3{letter-spacing:0.06em;}.cls-4{font-size:30.32px;fill:#d01700;font-family:Montserrat-ExtraLight, Montserrat;font-weight:200;letter-spacing:1em;}.cls-5{letter-spacing:0.99em;}.cls-6{letter-spacing:0.98em;}.cls-7{letter-spacing:0.99em;}.cls-8{letter-spacing:1em;}.cls-65,.cls-9{fill-rule:evenodd;}.cls-9{fill:url(#Degradado_sin_nombre_20);}.cls-10{fill:url(#Degradado_sin_nombre_20-2);}.cls-11{fill:url(#Degradado_sin_nombre_14);}.cls-12{fill:url(#Degradado_sin_nombre_10);}.cls-13{fill:url(#Degradado_sin_nombre_10-2);}.cls-14{fill:url(#Degradado_sin_nombre_10-3);}.cls-15{fill:url(#Degradado_sin_nombre_10-4);}.cls-16{fill:url(#Degradado_sin_nombre_10-5);}.cls-17{fill:url(#Degradado_sin_nombre_10-6);}.cls-18{fill:url(#Degradado_sin_nombre_10-7);}.cls-19{fill:url(#Degradado_sin_nombre_10-8);}.cls-20{fill:url(#Degradado_sin_nombre_10-9);}.cls-21{fill:url(#Degradado_sin_nombre_10-10);}.cls-22{fill:url(#Degradado_sin_nombre_10-11);}.cls-23{fill:url(#Degradado_sin_nombre_10-12);}.cls-24{fill:url(#Degradado_sin_nombre_10-13);}.cls-25{fill:url(#Degradado_sin_nombre_10-14);}.cls-26{fill:url(#Degradado_sin_nombre_10-15);}.cls-27{fill:url(#Degradado_sin_nombre_10-16);}.cls-28{fill:url(#Degradado_sin_nombre_10-17);}.cls-29{fill:url(#Degradado_sin_nombre_10-18);}.cls-30{fill:url(#Degradado_sin_nombre_10-19);}.cls-31{fill:url(#Degradado_sin_nombre_10-20);}.cls-32{fill:url(#Degradado_sin_nombre_10-21);}.cls-33{fill:url(#Degradado_sin_nombre_10-22);}.cls-34{fill:url(#Degradado_sin_nombre_10-23);}.cls-35{fill:url(#Degradado_sin_nombre_10-24);}.cls-36{fill:url(#Degradado_sin_nombre_10-25);}.cls-37{fill:url(#Degradado_sin_nombre_10-26);}.cls-38{fill:url(#Degradado_sin_nombre_14-2);}.cls-39{fill:url(#Degradado_sin_nombre_2);}.cls-40{fill:url(#Degradado_sin_nombre_2-2);}.cls-41{fill:url(#Degradado_sin_nombre_2-3);}.cls-42{fill:url(#Degradado_sin_nombre_2-4);}.cls-43{fill:url(#Degradado_sin_nombre_2-5);}.cls-44{fill:url(#Degradado_sin_nombre_2-6);}.cls-45{fill:url(#Degradado_sin_nombre_2-7);}.cls-46{fill:url(#Degradado_sin_nombre_2-8);}.cls-47{fill:url(#Degradado_sin_nombre_2-9);}.cls-48{fill:url(#Degradado_sin_nombre_2-10);}.cls-49{fill:url(#Degradado_sin_nombre_2-11);}.cls-50{fill:url(#Degradado_sin_nombre_2-12);}.cls-51{fill:url(#Degradado_sin_nombre_2-13);}.cls-52{fill:url(#Degradado_sin_nombre_2-14);}.cls-53{fill:url(#Degradado_sin_nombre_2-15);}.cls-54{fill:url(#Degradado_sin_nombre_2-16);}.cls-55{fill:url(#Degradado_sin_nombre_2-17);}.cls-56{fill:url(#Degradado_sin_nombre_2-18);}.cls-57{fill:url(#Degradado_sin_nombre_2-19);}.cls-58{fill:url(#Degradado_sin_nombre_2-20);}.cls-59{fill:url(#Degradado_sin_nombre_2-21);}.cls-60{fill:url(#Degradado_sin_nombre_2-22);}.cls-61{fill:url(#Degradado_sin_nombre_2-23);}.cls-62{fill:url(#Degradado_sin_nombre_2-24);}.cls-63{fill:url(#Degradado_sin_nombre_2-25);}.cls-64{fill:url(#Degradado_sin_nombre_2-26);}.cls-65{fill:#fbb03b;}</style><linearGradient id="Degradado_sin_nombre_20" x1="493.98" y1="418.63" x2="548.91" y2="473.56" gradientUnits="userSpaceOnUse"><stop offset="0" stop-color="#fff"/><stop offset="0.02" stop-color="#fceeec"/><stop offset="0.09" stop-color="#f2c1bb"/><stop offset="0.17" stop-color="#ea998f"/><stop offset="0.25" stop-color="#e37668"/><stop offset="0.33" stop-color="#dd5848"/><stop offset="0.43" stop-color="#d8402d"/><stop offset="0.52" stop-color="#d52e19"/><stop offset="0.64" stop-color="#d2210b"/><stop offset="0.77" stop-color="#d01903"/><stop offset="1" stop-color="#d01700"/></linearGradient><linearGradient id="Degradado_sin_nombre_20-2" x1="230.66" y1="615.74" x2="849.34" y2="615.74" xlink:href="#Degradado_sin_nombre_20"/><linearGradient id="Degradado_sin_nombre_14" x1="230.32" y1="267.24" x2="849.68" y2="267.24" gradientUnits="userSpaceOnUse"><stop offset="0" stop-color="#fff"/><stop offset="0" stop-color="#fdfdfd"/><stop offset="0.12" stop-color="#c5c8cd"/><stop offset="0.24" stop-color="#9399a2"/><stop offset="0.36" stop-color="#68717e"/><stop offset="0.48" stop-color="#465161"/><stop offset="0.61" stop-color="#2b384a"/><stop offset="0.73" stop-color="#18263a"/><stop offset="0.86" stop-color="#0d1c30"/><stop offset="1" stop-color="#09182d"/></linearGradient><linearGradient id="Degradado_sin_nombre_10" x1="476.44" y1="470.97" x2="709.43" y2="470.97" gradientUnits="userSpaceOnUse"><stop offset="0" stop-color="#fff"/><stop offset="0.09" stop-color="#feedd8"/><stop offset="0.21" stop-color="#fcd5a7"/><stop offset="0.33" stop-color="#fac17d"/><stop offset="0.46" stop-color="#f9b05b"/><stop offset="0.59" stop-color="#f8a340"/><stop offset="0.72" stop-color="#f89a2d"/><stop offset="0.86" stop-color="#f79522"/><stop offset="1" stop-color="#f7931e"/></linearGradient><linearGradient id="Degradado_sin_nombre_10-2" x1="608.92" y1="593.83" x2="644.58" y2="593.83" xlink:href="#Degradado_sin_nombre_10"/><linearGradient id="Degradado_sin_nombre_10-3" x1="605.34" y1="573.9" x2="623.67" y2="573.9" xlink:href="#Degradado_sin_nombre_10"/><linearGradient id="Degradado_sin_nombre_10-4" x1="633.35" y1="576.56" x2="670.79" y2="576.56" xlink:href="#Degradado_sin_nombre_10"/><linearGradient id="Degradado_sin_nombre_10-5" x1="627.36" y1="558.8" x2="645.84" y2="558.8" xlink:href="#Degradado_sin_nombre_10"/><linearGradient id="Degradado_sin_nombre_10-6" x1="654.95" y1="555.19" x2="693.04" y2="555.19" xlink:href="#Degradado_sin_nombre_10"/><linearGradient id="Degradado_sin_nombre_10-7" x1="646.07" y1="540.13" x2="665.42" y2="540.13" xlink:href="#Degradado_sin_nombre_10"/><linearGradient id="Degradado_sin_nombre_10-8" x1="673.07" y1="530.32" x2="710.66" y2="530.32" xlink:href="#Degradado_sin_nombre_10"/><linearGradient id="Degradado_sin_nombre_10-9" x1="660.86" y1="518.44" x2="681.84" y2="518.44" xlink:href="#Degradado_sin_nombre_10"/><linearGradient id="Degradado_sin_nombre_10-10" x1="687.15" y1="502.66" x2="723.12" y2="502.66" xlink:href="#Degradado_sin_nombre_10"/><linearGradient id="Degradado_sin_nombre_10-11" x1="671.21" y1="494.4" x2="694.67" y2="494.4" xlink:href="#Degradado_sin_nombre_10"/><linearGradient id="Degradado_sin_nombre_10-12" x1="696.78" y1="472.98" x2="730.05" y2="472.98" xlink:href="#Degradado_sin_nombre_10"/><linearGradient id="Degradado_sin_nombre_10-13" x1="676.69" y1="468.71" x2="703.7" y2="468.71" xlink:href="#Degradado_sin_nombre_10"/><linearGradient id="Degradado_sin_nombre_10-14" x1="701.63" y1="442.13" x2="731.22" y2="442.13" xlink:href="#Degradado_sin_nombre_10"/><linearGradient id="Degradado_sin_nombre_10-15" x1="677.24" y1="442.33" x2="708.64" y2="442.33" xlink:href="#Degradado_sin_nombre_10"/><linearGradient id="Degradado_sin_nombre_10-16" x1="701.15" y1="411.4" x2="726.62" y2="411.4" xlink:href="#Degradado_sin_nombre_10"/><linearGradient id="Degradado_sin_nombre_10-17" x1="673.5" y1="415.91" x2="708.52" y2="415.91" xlink:href="#Degradado_sin_nombre_10"/><linearGradient id="Degradado_sin_nombre_10-18" x1="695.12" y1="381.58" x2="717.18" y2="381.58" xlink:href="#Degradado_sin_nombre_10"/><linearGradient id="Degradado_sin_nombre_10-19" x1="665.71" y1="390.04" x2="703.3" y2="390.04" xlink:href="#Degradado_sin_nombre_10"/><linearGradient id="Degradado_sin_nombre_10-20" x1="683.73" y1="353.52" x2="703.56" y2="353.52" xlink:href="#Degradado_sin_nombre_10"/><linearGradient id="Degradado_sin_nombre_10-21" x1="654.11" y1="365.61" x2="693.14" y2="365.61" xlink:href="#Degradado_sin_nombre_10"/><linearGradient id="Degradado_sin_nombre_10-22" x1="667.36" y1="328.06" x2="685.78" y2="328.06" xlink:href="#Degradado_sin_nombre_10"/><linearGradient id="Degradado_sin_nombre_10-23" x1="639.05" y1="343.4" x2="678.35" y2="343.4" xlink:href="#Degradado_sin_nombre_10"/><linearGradient id="Degradado_sin_nombre_10-24" x1="645.99" y1="306.51" x2="661.51" y2="306.51" xlink:href="#Degradado_sin_nombre_10"/><linearGradient id="Degradado_sin_nombre_10-25" x1="614.84" y1="303.34" x2="644.3" y2="303.34" xlink:href="#Degradado_sin_nombre_10"/><linearGradient id="Degradado_sin_nombre_10-26" x1="623.63" y1="322.4" x2="657.25" y2="322.4" xlink:href="#Degradado_sin_nombre_10"/><linearGradient id="Degradado_sin_nombre_14-2" x1="456.32" y1="362.91" x2="621.86" y2="528.46" xlink:href="#Degradado_sin_nombre_14"/><linearGradient id="Degradado_sin_nombre_2" x1="367.69" y1="472.08" x2="600.65" y2="472.08" gradientUnits="userSpaceOnUse"><stop offset="0" stop-color="#fff"/><stop offset="0.09" stop-color="#ffedd8"/><stop offset="0.21" stop-color="#ffd5a7"/><stop offset="0.33" stop-color="#ffc17d"/><stop offset="0.46" stop-color="#ffb05b"/><stop offset="0.59" stop-color="#ffa340"/><stop offset="0.72" stop-color="#ff9a2d"/><stop offset="0.86" stop-color="#ff9522"/><stop offset="1" stop-color="#ff931e"/></linearGradient><linearGradient id="Degradado_sin_nombre_2-2" x1="429.94" y1="593.83" x2="465.6" y2="593.83" xlink:href="#Degradado_sin_nombre_2"/><linearGradient id="Degradado_sin_nombre_2-3" x1="450.85" y1="573.9" x2="469.17" y2="573.9" xlink:href="#Degradado_sin_nombre_2"/><linearGradient id="Degradado_sin_nombre_2-4" x1="403.72" y1="576.56" x2="441.16" y2="576.56" xlink:href="#Degradado_sin_nombre_2"/><linearGradient id="Degradado_sin_nombre_2-5" x1="428.68" y1="558.8" x2="447.16" y2="558.8" xlink:href="#Degradado_sin_nombre_2"/><linearGradient id="Degradado_sin_nombre_2-6" x1="381.47" y1="555.19" x2="419.56" y2="555.19" xlink:href="#Degradado_sin_nombre_2"/><linearGradient id="Degradado_sin_nombre_2-7" x1="409.09" y1="540.13" x2="428.45" y2="540.13" xlink:href="#Degradado_sin_nombre_2"/><linearGradient id="Degradado_sin_nombre_2-8" x1="363.85" y1="530.32" x2="401.45" y2="530.32" xlink:href="#Degradado_sin_nombre_2"/><linearGradient id="Degradado_sin_nombre_2-9" x1="392.68" y1="518.44" x2="413.66" y2="518.44" xlink:href="#Degradado_sin_nombre_2"/><linearGradient id="Degradado_sin_nombre_2-10" x1="351.4" y1="502.66" x2="387.37" y2="502.66" xlink:href="#Degradado_sin_nombre_2"/><linearGradient id="Degradado_sin_nombre_2-11" x1="379.85" y1="494.4" x2="403.31" y2="494.4" xlink:href="#Degradado_sin_nombre_2"/><linearGradient id="Degradado_sin_nombre_2-12" x1="344.47" y1="472.98" x2="377.74" y2="472.98" xlink:href="#Degradado_sin_nombre_2"/><linearGradient id="Degradado_sin_nombre_2-13" x1="370.81" y1="468.71" x2="397.82" y2="468.71" xlink:href="#Degradado_sin_nombre_2"/><linearGradient id="Degradado_sin_nombre_2-14" x1="343.29" y1="442.13" x2="372.88" y2="442.13" xlink:href="#Degradado_sin_nombre_2"/><linearGradient id="Degradado_sin_nombre_2-15" x1="365.88" y1="442.33" x2="397.28" y2="442.33" xlink:href="#Degradado_sin_nombre_2"/><linearGradient id="Degradado_sin_nombre_2-16" x1="347.9" y1="411.4" x2="373.36" y2="411.4" xlink:href="#Degradado_sin_nombre_2"/><linearGradient id="Degradado_sin_nombre_2-17" x1="366" y1="415.91" x2="401.02" y2="415.91" xlink:href="#Degradado_sin_nombre_2"/><linearGradient id="Degradado_sin_nombre_2-18" x1="357.33" y1="381.58" x2="379.4" y2="381.58" xlink:href="#Degradado_sin_nombre_2"/><linearGradient id="Degradado_sin_nombre_2-19" x1="371.22" y1="390.04" x2="408.81" y2="390.04" xlink:href="#Degradado_sin_nombre_2"/><linearGradient id="Degradado_sin_nombre_2-20" x1="370.96" y1="353.52" x2="390.79" y2="353.52" xlink:href="#Degradado_sin_nombre_2"/><linearGradient id="Degradado_sin_nombre_2-21" x1="381.38" y1="365.61" x2="420.41" y2="365.61" xlink:href="#Degradado_sin_nombre_2"/><linearGradient id="Degradado_sin_nombre_2-22" x1="388.73" y1="328.06" x2="407.16" y2="328.06" xlink:href="#Degradado_sin_nombre_2"/><linearGradient id="Degradado_sin_nombre_2-23" x1="396.17" y1="343.4" x2="435.47" y2="343.4" xlink:href="#Degradado_sin_nombre_2"/><linearGradient id="Degradado_sin_nombre_2-24" x1="414.6" y1="306.76" x2="429.11" y2="306.76" xlink:href="#Degradado_sin_nombre_2"/><linearGradient id="Degradado_sin_nombre_2-25" x1="418.58" y1="321.61" x2="450.02" y2="321.61" xlink:href="#Degradado_sin_nombre_2"/><linearGradient id="Degradado_sin_nombre_2-26" x1="431.13" y1="303.78" x2="453.65" y2="303.78" xlink:href="#Degradado_sin_nombre_2"/></defs><text class="cls-1" transform="translate(204.6 934.95)">HA<tspan class="cls-2" x="182.95" y="0">L</tspan><tspan class="cls-3" x="253.85" y="0">C</tspan><tspan x="337.43" y="0">ONES</tspan></text><text class="cls-4" transform="translate(279.72 834.11)">UN<tspan class="cls-5" x="109.39" y="0">I</tspan><tspan class="cls-6" x="148.23" y="0">V</tspan><tspan x="198.62" y="0">ERSI</tspan><tspan class="cls-7" x="389.03" y="0">D</tspan><tspan class="cls-8" x="444.09" y="0">AD</tspan></text><path class="cls-9" d="M530.63,388.31a7.55,7.55,0,0,1,7.52-1.83c7.05,1.73,11,12.09,12.79,17.94,2.51,8,3.78,19.31-.87,32.73-9.5,27.39-41.4,41.1-41.4,41.1s31.25-17.49,38.43-43.13a47.11,47.11,0,0,0-3.46-35.38c-9.14,30.56-60.27,40-74.26,110.79,15.45-18.16,37.93-19.21,55-32.45,17.83-13.83,31.62-31,33-53.87,1.75,31.8-21.17,51.07-36,63,0,0,39.5-15.16,53.79-45.05,5.59-11.69,6-20.42,4.33-26.73a52.42,52.42,0,0,0,.11-20c-3.76-18.08-22.36-31.86-40.26-19.52-1.15.8-9.4,1.86-8.65,12.4Z"/><path class="cls-10" d="M754.57,479C736.48,581.14,647.3,658.69,540,658.69S343.52,581.14,325.43,479H230.66C249.52,633.11,380.82,752.44,540,752.44S830.48,633.11,849.34,479Z"/><path class="cls-11" d="M325,405.38C341.87,301.86,431.7,222.86,540,222.86s198.13,79,215,182.52h94.64C832.11,249.91,700.17,129.1,540,129.1S247.89,249.91,230.32,405.38Z"/><path class="cls-12" d="M696,375.47a170.38,170.38,0,0,0-36.62-54.32c-3.19-3.2-6.5-6.24-9.91-9.16l-3.42,3.69A165.6,165.6,0,0,1,704.49,442c0,69.8-43.34,129.66-104.51,154.12-13.7,5-21.16,4-33.05,2.48a220.9,220.9,0,0,0-31.44-2.27c-38.19,0-58.21,29.51-59.05,30.77l4.32,2.86c.19-.28,19.38-28.45,54.73-28.45a214.75,214.75,0,0,1,30.76,2.23c11,1.44,18.9,2.47,31.21-1.31h0c2.23-.68,4.6-1.52,7.16-2.54l-.1-.23.54-.22A171,171,0,0,0,696,375.47Z"/><path class="cls-13" d="M608.92,587.45s19.24-13.78,35.66,13.39C627.87,607,617,603.54,608.92,587.45Z"/><path class="cls-14" d="M617.13,554.36s-23.08,14.71-4.64,39.07C626.6,582.58,626.43,569.78,617.13,554.36Z"/><path class="cls-15" d="M633.35,573.17s16.58-16.9,37.44,7C655.4,589.14,644.09,587.62,633.35,573.17Z"/><path class="cls-16" d="M635.72,539.16s-20.19,18.47,2.18,39.28C649.93,565.32,647.55,552.73,635.72,539.16Z"/><path class="cls-17" d="M655,554.87s13.41-19.5,38.09.46C679.43,566.8,668,567.26,655,554.87Z"/><path class="cls-18" d="M651.41,521s-16.7,21.69,8.94,38.32C669.92,544.28,665.41,532.3,651.41,521Z"/><path class="cls-19" d="M673.07,533.13s9.83-21.53,37.59-6.13C699.24,540.65,688.09,543.06,673.07,533.13Z"/><path class="cls-20" d="M663.72,500.35s-12.7,24.24,15.42,36.19C686,520.11,679.46,509.09,663.72,500.35Z"/><path class="cls-21" d="M687.15,508.58s6-22.9,36-12.54C714.23,511.46,703.66,515.77,687.15,508.58Z"/><path class="cls-22" d="M672.28,477.91s-8.32,26.07,21.44,33C697.62,493.52,689.3,483.79,672.28,477.91Z"/><path class="cls-23" d="M696.78,482s1.91-23.58,33.27-18.56C724,480.12,714.28,486.19,696.78,482Z"/><path class="cls-24" d="M676.83,454.32s-3.68,27.12,26.83,28.79C704.49,465.33,694.61,457.18,676.83,454.32Z"/><path class="cls-25" d="M701.67,454.09s-2.19-23.57,29.55-24C728.11,447.58,719.64,455.23,701.67,454.09Z"/><path class="cls-26" d="M677.24,430.31s1.06,27.35,31.4,23.71C706.39,436.37,695.25,430.05,677.24,430.31Z"/><path class="cls-27" d="M701.66,425.78s-6.23-22.83,25-28.77C726.58,414.81,719.56,423.8,701.66,425.78Z"/><path class="cls-28" d="M673.5,406.58s5.76,26.76,35,17.94C703.25,407.51,691.19,403.22,673.5,406.58Z"/><path class="cls-29" d="M696.77,397.91s-10.08-21.41,19.61-32.66C719.41,382.79,714.05,392.86,696.77,397.91Z"/><path class="cls-30" d="M665.71,383.86s10.3,25.36,37.59,11.62C695.17,379.64,682.55,377.49,665.71,383.86Z"/><path class="cls-31" d="M687.13,371.3S673.5,352,700.8,335.74C706.82,352.49,703.28,363.34,687.13,371.3Z"/><path class="cls-32" d="M654.11,362.83s14.53,23.19,39,4.94C682.4,353.58,669.6,353.65,654.11,362.83Z"/><path class="cls-33" d="M673,346.75s-16.77-16.7,7.32-37.38C689.19,324.83,687.57,336.12,673,346.75Z"/><path class="cls-34" d="M639.05,344.12s18.32,20.33,39.3-1.88C665.32,330.12,652.72,332.4,639.05,344.12Z"/><path class="cls-35" d="M653.35,323.19s-17-11.87.66-33.36C664,301.83,664.28,311.82,653.35,323.19Z"/><path class="cls-36" d="M644.3,310.81s-18.27,9.8-29.46-15.66C630,291.69,639.09,295.92,644.3,310.81Z"/><path class="cls-37" d="M623.63,326.06s18.88,14.77,33.62-7.57C644.17,310,633.65,313.88,623.63,326.06Z"/><path class="cls-38" d="M539.09,562.8A117.12,117.12,0,1,1,656.2,445.68,117.24,117.24,0,0,1,539.09,562.8Zm-.39-215.91a98.8,98.8,0,1,0,98.79,98.79A98.91,98.91,0,0,0,538.7,346.89Z"/><path class="cls-39" d="M541.6,596.31a220.9,220.9,0,0,0-31.44,2.27c-11.81,1.55-19.26,2.52-32.8-2.39C416.07,571.79,372.64,511.86,372.64,442a165.59,165.59,0,0,1,57.18-125.23l-4.72-2.53c-2.51,2.24-5,4.54-7.36,6.93a171,171,0,0,0,54.31,278.27l.51.2-.1.25c2.69,1.07,5.16,1.94,7.48,2.64l.53.2,0,0c11.82,3.47,19.57,2.46,30.34,1.05a215,215,0,0,1,30.77-2.23c35.34,0,54.54,28.17,54.73,28.45l4.32-2.86C599.81,625.82,579.79,596.31,541.6,596.31Z"/><path class="cls-40" d="M465.6,587.45s-19.24-13.78-35.66,13.39C446.64,607,457.52,603.54,465.6,587.45Z"/><path class="cls-41" d="M457.39,554.36s23.08,14.71,4.64,39.07C447.92,582.58,448.09,569.78,457.39,554.36Z"/><path class="cls-42" d="M441.16,573.17s-16.57-16.9-37.44,7C419.11,589.14,430.42,587.62,441.16,573.17Z"/><path class="cls-43" d="M438.79,539.16s20.2,18.47-2.18,39.28C424.59,565.32,427,552.73,438.79,539.16Z"/><path class="cls-44" d="M419.56,554.87s-13.4-19.5-38.09.46C395.08,566.8,406.49,567.26,419.56,554.87Z"/><path class="cls-45" d="M423.11,521s16.69,21.69-8.94,38.32C404.6,544.28,409.11,532.3,423.11,521Z"/><path class="cls-46" d="M401.45,533.13s-9.83-21.53-37.6-6.13C375.28,540.65,386.43,543.06,401.45,533.13Z"/><path class="cls-47" d="M410.8,500.35s12.69,24.24-15.42,36.19C388.54,520.11,395.05,509.09,410.8,500.35Z"/><path class="cls-48" d="M387.37,508.58s-6-22.9-36-12.54C360.29,511.46,370.86,515.77,387.37,508.58Z"/><path class="cls-49" d="M402.24,477.91s8.31,26.07-21.45,33C376.9,493.52,385.22,483.79,402.24,477.91Z"/><path class="cls-50" d="M377.74,482s-1.92-23.58-33.27-18.56C350.57,480.12,360.23,486.19,377.74,482Z"/><path class="cls-51" d="M397.68,454.32s3.69,27.12-26.82,28.79C370,465.33,379.91,457.18,397.68,454.32Z"/><path class="cls-52" d="M372.85,454.09s2.19-23.57-29.56-24C346.41,447.58,354.88,455.23,372.85,454.09Z"/><path class="cls-53" d="M397.28,430.31s-1.06,27.35-31.4,23.71C368.13,436.37,379.27,430.05,397.28,430.31Z"/><path class="cls-54" d="M372.85,425.78s6.23-22.83-25-28.77C347.94,414.81,355,423.8,372.85,425.78Z"/><path class="cls-55" d="M401,406.58s-5.76,26.76-35,17.94C371.27,407.51,383.33,403.22,401,406.58Z"/><path class="cls-56" d="M377.75,397.91s10.08-21.41-19.61-32.66C355.1,382.79,360.46,392.86,377.75,397.91Z"/><path class="cls-57" d="M408.81,383.86s-10.3,25.36-37.59,11.62C379.34,379.64,392,377.49,408.81,383.86Z"/><path class="cls-58" d="M387.39,371.3S401,352,373.71,335.74C367.69,352.49,371.23,363.34,387.39,371.3Z"/><path class="cls-59" d="M420.41,362.83s-14.53,23.19-39,4.94C392.12,353.58,404.92,353.65,420.41,362.83Z"/><path class="cls-60" d="M401.48,346.75s16.77-16.7-7.32-37.38C385.33,324.83,386.94,336.12,401.48,346.75Z"/><path class="cls-61" d="M435.47,344.12s-18.32,20.33-39.3-1.88C409.2,330.12,421.8,332.4,435.47,344.12Z"/><path class="cls-62" d="M422.23,322.35s15.89-11.09-.62-31.19C412.31,302.38,412,311.72,422.23,322.35Z"/><path class="cls-63" d="M450,325s-17.66,13.81-31.44-7.07C430.81,310,440.65,313.65,450,325Z"/><path class="cls-64" d="M453.65,294.93s-.49,19.84-22.52,17.51C432.58,299.62,440.59,294.93,453.65,294.93Z"/><path class="cls-65" d="M540,226.26l2.76,21a25.28,25.28,0,0,0-2.77-.16,23.48,23.48,0,0,0-2.92.18Z"/><path class="cls-65" d="M540,315.78l2.76-21A25.28,25.28,0,0,1,540,295a23.48,23.48,0,0,1-2.92-.18Z"/><path class="cls-65" d="M562.38,232.3l-8.08,19.5a24.15,24.15,0,0,0-4.92-2.82Z"/><path class="cls-65" d="M517.62,309.83,530.51,293a23.85,23.85,0,0,1-4.92-2.86Z"/><path class="cls-65" d="M578.76,248.69,562,261.54a24,24,0,0,0-2.85-4.91Z"/><path class="cls-65" d="M501.24,293.45l19.56-8.11a23.41,23.41,0,0,1-2.84-4.93Z"/><path class="cls-65" d="M584.76,271.07l-21,2.75A23.53,23.53,0,0,0,564,271a25,25,0,0,0-.17-2.88Z"/><path class="cls-65" d="M495.24,271.07l21,2.75a23.53,23.53,0,0,1-.16-2.8,25,25,0,0,1,.17-2.88Z"/><path class="cls-65" d="M578.72,293.44l-19.52-8.09a24.31,24.31,0,0,0,2.84-4.92Z"/><path class="cls-65" d="M501.19,248.67,518,261.56a23.85,23.85,0,0,1,2.86-4.92Z"/><path class="cls-65" d="M562.34,309.82,549.46,293a23.37,23.37,0,0,0,4.92-2.85Z"/><path class="cls-65" d="M517.58,232.29l8.09,19.54a24.31,24.31,0,0,1,4.92-2.84Z"/><path class="cls-65" d="M540.2,254.19A16.84,16.84,0,1,1,523.79,271a16.61,16.61,0,0,1,16.41-16.83m0-4.36A21.2,21.2,0,1,1,519.44,271,21,21,0,0,1,540.2,249.83Z"/></svg>